REM DIRINDEX 1\3,1\4,1\5,1\6,1\2\7,1\2\8,1\2\9,1\10
REM DIRNAME cjc056,folder01,folder02,folder03,folder04,folder05,folder06,folder07,folder08,folder09
TITLE ""
FILE "1-45 Level 3-385-395.mp3" MP3
  TRACK 01 AUDIO
    TITLE "0:"
    INDEX 01 00:00:00
  TRACK 02 AUDIO
    TITLE "7:cjc056_1346"
    INDEX 01 00:00:01
  TRACK 03 AUDIO
    TITLE "0:"
    INDEX 01 00:01:03
  TRACK 04 AUDIO
    TITLE "8:cjc056_1347"
    INDEX 01 00:01:15
  TRACK 05 AUDIO
    TITLE "0:"
    INDEX 01 00:02:22
  TRACK 06 AUDIO
    TITLE "9:cjc056_1348"
    INDEX 01 00:02:36
  TRACK 07 AUDIO
    TITLE "0:"
    INDEX 01 00:04:17
  TRACK 08 AUDIO
    TITLE "8:cjc056_1349"
    INDEX 01 00:04:42
  TRACK 09 AUDIO
    TITLE "0:"
    INDEX 01 00:05:63
  TRACK 10 AUDIO
    TITLE "9:cjc056_1350"
    INDEX 01 00:06:02
  TRACK 11 AUDIO
    TITLE "0:"
    INDEX 01 00:07:29
  TRACK 12 AUDIO
    TITLE "8:cjc056_1351"
    INDEX 01 00:07:54
  TRACK 13 AUDIO
    TITLE "0:"
    INDEX 01 00:08:62
  TRACK 14 AUDIO
    TITLE "9:cjc056_1352"
    INDEX 01 00:09:00
  TRACK 15 AUDIO
    TITLE "0:"
    INDEX 01 00:10:59
  TRACK 16 AUDIO
    TITLE "7:cjc056_1353"
    INDEX 01 00:11:35
  TRACK 17 AUDIO
    TITLE "0:"
    INDEX 01 00:12:34
  TRACK 18 AUDIO
    TITLE "8:cjc056_1354"
    INDEX 01 00:12:48
  TRACK 19 AUDIO
    TITLE "0:"
    INDEX 01 00:13:61
  TRACK 20 AUDIO
    TITLE "9:cjc056_1355"
    INDEX 01 00:13:73
  TRACK 21 AUDIO
    TITLE "0:"
    INDEX 01 00:15:38
  TRACK 22 AUDIO
    TITLE "7:cjc056_1356"
    INDEX 01 00:16:16
  TRACK 23 AUDIO
    TITLE "0:"
    INDEX 01 00:17:21
  TRACK 24 AUDIO
    TITLE "8:cjc056_1357"
    INDEX 01 00:17:33
  TRACK 25 AUDIO
    TITLE "0:"
    INDEX 01 00:18:39
  TRACK 26 AUDIO
    TITLE "9:cjc056_1358"
    INDEX 01 00:18:52
  TRACK 27 AUDIO
    TITLE "0:"
    INDEX 01 00:20:14
  TRACK 28 AUDIO
    TITLE "7:cjc056_1359"
    INDEX 01 00:20:63
  TRACK 29 AUDIO
    TITLE "0:"
    INDEX 01 00:21:70
  TRACK 30 AUDIO
    TITLE "8:cjc056_1360"
    INDEX 01 00:22:11
  TRACK 31 AUDIO
    TITLE "0:"
    INDEX 01 00:23:46
  TRACK 32 AUDIO
    TITLE "9:cjc056_1361"
    INDEX 01 00:23:59
  TRACK 33 AUDIO
    TITLE "0:"
    INDEX 01 00:25:23
  TRACK 34 AUDIO
    TITLE "7:cjc056_1362"
    INDEX 01 00:26:01
  TRACK 35 AUDIO
    TITLE "0:"
    INDEX 01 00:26:71
  TRACK 36 AUDIO
    TITLE "8:cjc056_1363"
    INDEX 01 00:27:10
  TRACK 37 AUDIO
    TITLE "0:"
    INDEX 01 00:28:51
  TRACK 38 AUDIO
    TITLE "9:cjc056_1364"
    INDEX 01 00:28:64
  TRACK 39 AUDIO
    TITLE "0:"
    INDEX 01 00:30:22
  TRACK 40 AUDIO
    TITLE "7:cjc056_1365"
    INDEX 01 00:30:73
  TRACK 41 AUDIO
    TITLE "0:"
    INDEX 01 00:32:01
  TRACK 42 AUDIO
    TITLE "8:cjc056_1366"
    INDEX 01 00:32:15
  TRACK 43 AUDIO
    TITLE "0:"
    INDEX 01 00:33:58
  TRACK 44 AUDIO
    TITLE "9:cjc056_1367"
    INDEX 01 00:33:69
  TRACK 45 AUDIO
    TITLE "0:"
    INDEX 01 00:36:13
  TRACK 46 AUDIO
    TITLE "7:cjc056_1368"
    INDEX 01 00:36:66
  TRACK 47 AUDIO
    TITLE "0:"
    INDEX 01 00:37:67
  TRACK 48 AUDIO
    TITLE "8:cjc056_1369"
    INDEX 01 00:38:06
  TRACK 49 AUDIO
    TITLE "0:"
    INDEX 01 00:39:47
  TRACK 50 AUDIO
    TITLE "9:cjc056_1370"
    INDEX 01 00:39:54
  TRACK 51 AUDIO
    TITLE "0:"
    INDEX 01 00:42:23
  TRACK 52 AUDIO
    TITLE "7:cjc056_1371"
    INDEX 01 00:43:01
  TRACK 53 AUDIO
    TITLE "0:"
    INDEX 01 00:43:72
  TRACK 54 AUDIO
    TITLE "8:cjc056_1372"
    INDEX 01 00:44:09
  TRACK 55 AUDIO
    TITLE "0:"
    INDEX 01 00:45:55
  TRACK 56 AUDIO
    TITLE "9:cjc056_1373"
    INDEX 01 00:45:71
  TRACK 57 AUDIO
    TITLE "0:"
    INDEX 01 00:47:34
  TRACK 58 AUDIO
    TITLE "7:cjc056_1374"
    INDEX 01 00:48:10
  TRACK 59 AUDIO
    TITLE "0:"
    INDEX 01 00:49:14
  TRACK 60 AUDIO
    TITLE "8:cjc056_1375"
    INDEX 01 00:49:25
  TRACK 61 AUDIO
    TITLE "0:"
    INDEX 01 00:50:29
  TRACK 62 AUDIO
    TITLE "9:cjc056_1376"
    INDEX 01 00:50:42
  TRACK 63 AUDIO
    TITLE "0:"
    INDEX 01 00:51:54
  TRACK 64 AUDIO
    TITLE "8:cjc056_1377"
    INDEX 01 00:52:02
  TRACK 65 AUDIO
    TITLE "0:"
    INDEX 01 00:53:27
  TRACK 66 AUDIO
    TITLE "9:cjc056_1378"
    INDEX 01 00:53:39
  TRACK 67 AUDIO
    TITLE "0:"
    INDEX 01 00:54:64
  TRACK 68 AUDIO
    TITLE "7:cjc056_1379"
    INDEX 01 00:55:38
  TRACK 69 AUDIO
    TITLE "0:"
    INDEX 01 00:56:55
  TRACK 70 AUDIO
    TITLE "8:cjc056_1380"
    INDEX 01 00:56:69
  TRACK 71 AUDIO
    TITLE "0:"
    INDEX 01 00:58:17
  TRACK 72 AUDIO
    TITLE "9:cjc056_1381"
    INDEX 01 00:58:30
  TRACK 73 AUDIO
    TITLE "0:"
    INDEX 01 01:00:04
  TRACK 74 AUDIO
    TITLE "7:cjc056_1382"
    INDEX 01 01:00:57
  TRACK 75 AUDIO
    TITLE "0:"
    INDEX 01 01:01:58
  TRACK 76 AUDIO
    TITLE "8:cjc056_1383"
    INDEX 01 01:01:70
  TRACK 77 AUDIO
    TITLE "0:"
    INDEX 01 01:04:19
  TRACK 78 AUDIO
    TITLE "9:cjc056_1384"
    INDEX 01 01:04:33
  TRACK 79 AUDIO
    TITLE "0:"
    INDEX 01 01:05:66
